<?xml version="1.0" encoding="UTF-8"?>
<svg id="Layer_2" data-name="Layer 2" xmlns="http://www.w3.org/2000/svg" viewBox="0 0 495.2 101.48">
  <defs>
    <style>
      .cls-1 {
        fill: #7dbf61;
      }

      .cls-2 {
        fill: #fff;
      }
    </style>
  </defs>
  <g id="Layer_1-2" data-name="Layer 1">
    <g>
      <path class="cls-2" d="M214.57,49.54c4.73,2.21,9.77,3.78,15.45,3.78s11.35-2.21,11.35-6.94-5.05-6.31-11.67-8.83c-8.2-3.15-17.34-7.25-17.34-18.92S221.82.03,232.86.03s13.56.95,20.18,3.47l-3.15,11.04c-5.05-1.89-9.77-3.15-15.77-3.15s-8.83,2.52-8.83,5.99c0,5.05,5.05,6.94,11.35,9.14,8.51,3.15,17.66,7.25,17.66,18.6s-10.09,19.86-23.65,19.86-15.14-2.21-19.86-5.05l4.1-10.09h0l-.32-.32Z"/>
      <path class="cls-2" d="M284.26.98l13.24-.63,23.96,63.38-13.56.63-5.99-17.03h-21.76l-5.68,16.4h-13.56L284.26.98ZM298.44,36.61l-4.1-11.35-3.47-11.04-3.47,11.04-3.78,11.35h14.82Z"/>
      <path class="cls-2" d="M331.24.98h21.44c13.87,0,21.13,5.68,21.13,15.77s-3.15,10.72-7.88,12.93h0c6.62,2.21,11.04,6.62,11.04,15.14s-9.14,19.23-23.02,19.23h-22.39V.98h-.32ZM355.2,26.52c4.1-1.26,5.68-4.1,5.68-7.88s-3.78-6.62-9.14-6.62h-7.88v14.19h11.35v.32ZM353.62,52.38c6.62,0,10.09-3.15,10.09-7.88s-3.78-6.62-8.83-7.25h-10.72v15.14h9.46Z"/>
      <path class="cls-2" d="M389.89.98h39.1l-.63,11.35h-26.17v14.19h24.28v10.72h-24.28v15.14h28.06l-.63,11.35h-40.04V.98h.32Z"/>
      <path class="cls-2" d="M443.49.98h20.81c15.77,0,23.96,6.62,23.96,18.92s-4.41,13.56-10.72,16.71l17.34,27.12-14.19.95-14.82-23.96h-9.77v23.02h-12.61V.98h0ZM468.08,29.67c4.1-1.26,6.94-4.1,6.94-8.83s-4.73-8.2-11.98-8.2h-6.94v17.34h11.98v-.32Z"/>
      <path class="cls-1" d="M219.3,95.89c.95-.32,1.58-.95,1.89-1.58s.63-1.58.63-2.52,0-1.89-.63-2.52c0-.63-1.26-1.26-1.89-1.58-.95-.32-1.89-.63-3.15-.63h-5.36v14.19h1.89v-4.41h4.41l3.15,4.41h2.21l-3.47-4.73h0v-.63h.32ZM215.83,94.63h-3.47v-6.31h3.47c1.26,0,2.21,0,2.84.95.63.63.95,1.26.95,2.21s0,1.89-.95,2.21c-.63.63-1.58.95-2.84.95Z"/>
      <path class="cls-1" d="M231.28,94.63h6.94v-1.58h-6.94v-4.41h7.88v-1.89h-9.77v14.19h10.09v-1.89h-8.2v-4.41Z"/>
      <path class="cls-1" d="M256.82,97.15l-8.51-10.41h-1.58v14.19h1.89v-10.41l8.51,10.41h1.58v-14.19h-1.89v10.41Z"/>
      <path class="cls-1" d="M268.8,94.63h6.94v-1.58h-6.94v-4.41h7.88v-1.89h-9.77v14.19h10.09v-1.89h-8.2v-4.41Z"/>
      <path class="cls-1" d="M298.13,98.1l-3.78-11.35h-1.89l-4.1,11.35-3.78-11.35h-2.21l4.73,14.19h2.21l3.78-11.35,3.78,11.35h2.21l4.73-14.19h-1.89l-3.78,11.35Z"/>
      <path class="cls-1" d="M314.21,86.74l-6.31,14.19h2.21l1.58-3.47h7.57l1.58,3.47h2.21l-6.31-14.19s-2.52,0-2.52,0ZM312.32,95.57l3.15-6.94,3.15,6.94h-6.31Z"/>
      <path class="cls-1" d="M338.8,93.68h-.63c.63,0,.95-.63,1.26-1.26,0-.63.63-1.26.63-1.89,0-1.26,0-1.89-1.26-2.52-.95-.63-2.21-.95-3.78-.95h-6.31v14.19h6.62c1.89,0,3.15,0,4.1-.95s1.26-1.58,1.26-2.84,0-1.58-.63-1.89c0-.63-.95-.95-1.58-1.26h0v-.63h.32ZM330.61,88.32h4.1c.95,0,1.89,0,2.52.63.63.32.95.95.95,1.58s0,1.26-.95,1.58c-.63.32-1.26.63-2.52.63h-4.1v-4.41ZM337.86,98.41c-.63.32-1.58.63-2.52.63h-4.73v-4.73h4.73c1.26,0,1.89,0,2.52.63.63.32.95.95.95,1.89s0,1.26-.95,1.89h0v-.32Z"/>
      <path class="cls-1" d="M349.84,86.74h-1.89v14.19h9.46v-1.89h-7.57v-12.3Z"/>
      <path class="cls-1" d="M365.92,94.63h6.94v-1.58h-6.94v-4.41h7.88v-1.89h-9.77v14.19h10.09v-1.89h-8.2v-4.41Z"/>
      <path class="cls-1" d="M392.72,94.63h6.94v-1.58h-6.94v-4.41h7.88v-1.89h-9.77v14.19h10.09v-1.89h-8.2s0-4.41,0-4.41Z"/>
      <path class="cls-1" d="M418.26,97.15l-8.51-10.41h-1.58v14.19h1.89v-10.41l8.51,10.41h1.58v-14.19h-1.89v10.41Z"/>
      <path class="cls-1" d="M430.56,94.63h6.94v-1.58h-6.94v-4.41h7.88v-1.89h-9.77v14.19h10.09v-1.89h-8.2v-4.41h0Z"/>
      <path class="cls-1" d="M454.52,95.89c.95-.32,1.58-.95,1.89-1.58s.63-1.58.63-2.52,0-1.89-.63-2.52c-.32-.63-1.26-1.26-1.89-1.58-.95-.32-1.89-.63-3.15-.63h-5.36v14.19h1.89v-4.41h4.41l3.15,4.41h2.21l-3.47-4.73h.32s0-.63,0-.63ZM451.37,94.63h-3.47v-6.31h3.47c1.26,0,2.21,0,2.84.95.63.63.95,1.26.95,2.21s-.32,1.89-.95,2.21c-.63.63-1.58.95-2.84.95Z"/>
      <path class="cls-1" d="M466.82,89.9c.63-.63.95-.95,1.89-1.26.63,0,1.58-.32,2.21-.32s1.58,0,2.21.32c.63,0,1.26.63,1.89,1.26l1.26-1.26c-.63-.63-1.26-1.26-2.21-1.58s-1.89-.63-3.15-.63-2.21,0-3.15.63c-.95.32-1.58.95-2.52,1.58-.63.63-1.26,1.26-1.58,2.21s-.63,1.89-.63,2.84,0,1.89.63,2.84c.32.95.95,1.58,1.58,2.21s1.58,1.26,2.52,1.58,1.89.63,2.84.63,1.89,0,2.84-.32c.95,0,1.89-.63,2.52-1.26v-5.36h-1.89v4.41c-.32,0-.63.32-1.26.63-.63,0-1.26.32-2.21.32s-1.58,0-2.21-.32c-.63,0-1.26-.63-1.89-1.26-.63-.63-.95-.95-1.26-1.58,0-.63-.32-1.26-.32-2.21s0-1.58.32-2.21c0-.63.63-1.26,1.26-1.58h.32v-.32Z"/>
      <path class="cls-1" d="M492.99,86.74l-4.41,7.25-4.41-7.25h-2.21l5.68,9.14v5.05h1.89v-4.73l5.68-9.14h-2.21v-.32Z"/>
      <path class="cls-2" d="M65.11,24.31c-14.5-8.51-33.11-3.47-41.62,11.04-8.51,14.5-3.47,33.11,11.04,41.62,11.98,6.94,27.12,5.05,36.89-4.73l38.15-38.15c8.2-6.62,19.86-6.62,28.06.32l-51.71,51.71c-19.86,19.55-51.71,19.55-71.26,0-19.55-19.86-19.55-51.71,0-71.26C31.69-2.8,59.44-5.01,79.3,9.81l-14.5,14.5h.32Z"/>
      <path class="cls-1" d="M107.36,76.65c14.5,8.51,33.11,3.47,41.62-11.04,8.51-14.5,3.47-33.11-11.04-41.62-11.98-6.94-27.12-5.05-36.89,4.73l-38.15,38.15c-8.2,6.62-19.86,6.62-28.06-.32L87.18,14.85c19.86-19.55,51.71-19.55,71.26,0,19.55,19.86,19.55,51.71,0,71.26-19.55,19.55-45.41,19.55-65.27,5.05l14.5-14.5h-.32Z"/>
    </g>
  </g>
</svg>